<?xml version="1.0" standalone="no"?><!DOCTYPE svg PUBLIC "-//W3C//DTD SVG 1.1//EN" "http://www.w3.org/Graphics/SVG/1.1/DTD/svg11.dtd"><svg t="1660483811661" class="icon" viewBox="0 0 1024 1024" version="1.1" xmlns="http://www.w3.org/2000/svg" p-id="2085" data-spm-anchor-id="a313x.7781069.0.i0" xmlns:xlink="http://www.w3.org/1999/xlink" width="200" height="200"><defs><style type="text/css">@font-face { font-family: feedback-iconfont; src: url("//at.alicdn.com/t/font_1031158_u69w8yhxdu.woff2?t=1630033759944") format("woff2"), url("//at.alicdn.com/t/font_1031158_u69w8yhxdu.woff?t=1630033759944") format("woff"), url("//at.alicdn.com/t/font_1031158_u69w8yhxdu.ttf?t=1630033759944") format("truetype"); }
</style></defs><path d="M704 199.68h28.16c25.6 0 46.08-20.48 46.08-43.52V69.12c0-25.6-20.48-43.52-46.08-43.52h-28.16c-25.6 0-43.52 20.48-43.52 43.52v87.04c-2.56 25.6 17.92 43.52 43.52 43.52z m268.8 25.6v-102.4c0-20.48-17.92-38.4-38.4-38.4h-84.48-46.08v56.32c0 51.2-40.96 92.16-92.16 92.16h-5.12c-51.2 0-92.16-40.96-92.16-92.16V84.48h-171.52v56.32c0 51.2-40.96 92.16-92.16 92.16h-5.12c-51.2 0-92.16-40.96-92.16-92.16V84.48H179.2h10.24-99.84C69.12 84.48 51.2 102.4 51.2 122.88v844.8c0 20.48 17.92 38.4 38.4 38.4H184.32h-12.8H844.8h-15.36 97.28c20.48 0 38.4-17.92 38.4-38.4V232.96c7.68-2.56 7.68-5.12 7.68-7.68z m-58.88 663.04c0 53.76-5.12 58.88-58.88 58.88H168.96c-53.76 0-58.88-5.12-58.88-58.88V320h803.84v568.32zM332.8 199.68h28.16c25.6 0 46.08-20.48 46.08-43.52V69.12c0-25.6-20.48-43.52-46.08-43.52H332.8c-25.6 0-46.08 20.48-46.08 43.52v87.04c0 25.6 20.48 43.52 46.08 43.52zM302.08 640h391.68c-12.8 25.6-25.6 48.64-43.52 71.68-15.36 20.48-33.28 38.4-53.76 56.32-20.48 15.36-40.96 30.72-64 43.52-17.92 10.24-35.84 17.92-56.32 25.6-10.24 2.56-12.8 12.8-10.24 23.04 2.56 5.12 5.12 7.68 10.24 10.24 5.12 2.56 10.24 2.56 15.36 0 23.04-7.68 46.08-20.48 69.12-33.28 28.16-15.36 51.2-35.84 76.8-56.32 23.04-23.04 43.52-48.64 64-76.8 15.36-23.04 28.16-48.64 38.4-76.8 5.12-12.8-5.12-25.6-17.92-25.6H537.6v-66.56c0-10.24-7.68-17.92-17.92-17.92-10.24 0-17.92 7.68-17.92 17.92v66.56h-199.68c-10.24 0-17.92 7.68-17.92 17.92v2.56c-2.56 10.24 7.68 17.92 17.92 17.92z m17.92-102.4l74.24-76.8 12.8-12.8c10.24-7.68 17.92-12.8 30.72-15.36 5.12-2.56 12.8-2.56 23.04-2.56h122.88c7.68 0 15.36 0 23.04 2.56 5.12 0 12.8 2.56 17.92 5.12 10.24 5.12 17.92 12.8 25.6 20.48l71.68 76.8c7.68 7.68 17.92 7.68 25.6 0 5.12-5.12 5.12-7.68 5.12-12.8s-2.56-7.68-5.12-12.8L675.84 435.2l-17.92-17.92c-5.12-5.12-12.8-7.68-20.48-12.8-15.36-7.68-35.84-10.24-56.32-10.24h-122.88c-20.48 0-38.4 2.56-56.32 10.24-7.68 5.12-12.8 7.68-20.48 12.8l-17.92 17.92-71.68 76.8c-5.12 5.12-5.12 7.68-5.12 12.8s2.56 10.24 5.12 12.8c7.68 7.68 20.48 7.68 28.16 0z" fill="#1296db" p-id="2086"></path></svg>